<?xml version="1.0" encoding="UTF-8"?>
<svg version="1.1" xmlns="http://www.w3.org/2000/svg" width="94" height="94">
<path d="M0 0 C1.37478516 0.01740234 1.37478516 0.01740234 2.77734375 0.03515625 C3.69644531 0.04417969 4.61554687 0.05320312 5.5625 0.0625 C6.27277344 0.07410156 6.98304687 0.08570313 7.71484375 0.09765625 C7.98296875 0.73703125 8.25109375 1.37640625 8.52734375 2.03515625 C9.60152127 4.42897311 9.60152127 4.42897311 12.71484375 5.09765625 C12.84966134 8.03667974 12.94883791 10.96955184 13.02734375 13.91015625 C13.06923828 14.74353516 13.11113281 15.57691406 13.15429688 16.43554688 C13.20090829 18.7567953 13.19770995 20.82524292 12.71484375 23.09765625 C10.2578125 24.984375 10.2578125 24.984375 7.71484375 26.09765625 C7.38484375 27.08765625 7.05484375 28.07765625 6.71484375 29.09765625 C6.05484375 29.42765625 5.39484375 29.75765625 4.71484375 30.09765625 C4.71484375 30.75765625 4.71484375 31.41765625 4.71484375 32.09765625 C5.30652344 32.2678125 5.89820312 32.43796875 6.5078125 32.61328125 C11.30962067 34.0859402 15.08085386 35.46366636 18.71484375 39.09765625 C20.46338189 44.34327066 21.24409094 48.54056071 20.71484375 54.09765625 C18.40234375 55.78515625 18.40234375 55.78515625 15.71484375 57.09765625 C13.08893975 60.70747562 12.25286344 63.7038288 11.71484375 68.09765625 C11.17157052 72.53438763 10.22226114 75.38667851 7.71484375 79.09765625 C7.05484375 80.08765625 6.39484375 81.07765625 5.71484375 82.09765625 C2.45703125 82.390625 2.45703125 82.390625 -1.41015625 82.28515625 C-3.33214844 82.24455078 -3.33214844 82.24455078 -5.29296875 82.203125 C-6.28039063 82.16832031 -7.2678125 82.13351563 -8.28515625 82.09765625 C-11.50511914 77.16708808 -12.95867685 74.15934163 -12.28515625 68.09765625 C-11.28515625 65.16015625 -11.28515625 65.16015625 -10.28515625 63.09765625 C-11.39890625 62.04578125 -11.39890625 62.04578125 -12.53515625 60.97265625 C-15.28515625 58.09765625 -15.28515625 58.09765625 -17.47265625 54.78515625 C-18.07078125 53.89828125 -18.66890625 53.01140625 -19.28515625 52.09765625 C-19.94515625 52.09765625 -20.60515625 52.09765625 -21.28515625 52.09765625 C-21.28515625 48.46765625 -21.28515625 44.83765625 -21.28515625 41.09765625 C-20.62515625 41.09765625 -19.96515625 41.09765625 -19.28515625 41.09765625 C-17.90073625 39.13267303 -16.57311791 37.1271716 -15.28515625 35.09765625 C-13.71682528 32.87585404 -12.47100883 31.23759231 -10.29296875 29.59765625 C-7.26978554 25.83338143 -7.18958035 21.92638575 -6.66015625 17.22265625 C-4.57825177 0.19565179 -4.57825177 0.19565179 0 0 Z M0.71484375 9.09765625 C1.71484375 11.09765625 1.71484375 11.09765625 1.71484375 11.09765625 Z M3.71484375 9.09765625 C1.53152686 10.8590198 1.53152686 10.8590198 1.51953125 13.04296875 C1.55433594 14.12191406 1.55433594 14.12191406 1.58984375 15.22265625 C1.63109375 16.50140625 1.67234375 17.78015625 1.71484375 19.09765625 C2.70484375 19.09765625 3.69484375 19.09765625 4.71484375 19.09765625 C4.71484375 15.79765625 4.71484375 12.49765625 4.71484375 9.09765625 C4.38484375 9.09765625 4.05484375 9.09765625 3.71484375 9.09765625 Z M-0.28515625 11.09765625 C-0.28515625 15.05765625 -0.28515625 19.01765625 -0.28515625 23.09765625 C0.04484375 23.09765625 0.37484375 23.09765625 0.71484375 23.09765625 C0.71484375 19.13765625 0.71484375 15.17765625 0.71484375 11.09765625 C0.38484375 11.09765625 0.05484375 11.09765625 -0.28515625 11.09765625 Z M4.71484375 13.09765625 C5.71484375 16.09765625 5.71484375 16.09765625 5.71484375 16.09765625 Z M-6.28515625 21.09765625 C-5.28515625 25.09765625 -5.28515625 25.09765625 -5.28515625 25.09765625 Z M1.71484375 29.09765625 C2.71484375 32.09765625 2.71484375 32.09765625 2.71484375 32.09765625 Z M2.71484375 32.09765625 C3.71484375 35.09765625 3.71484375 35.09765625 3.71484375 35.09765625 Z M-3.28515625 34.09765625 C-2.28515625 36.09765625 -2.28515625 36.09765625 -2.28515625 36.09765625 Z M4.71484375 34.09765625 C4.71484375 34.42765625 4.71484375 34.75765625 4.71484375 35.09765625 C6.36484375 35.09765625 8.01484375 35.09765625 9.71484375 35.09765625 C9.71484375 34.76765625 9.71484375 34.43765625 9.71484375 34.09765625 C8.06484375 34.09765625 6.41484375 34.09765625 4.71484375 34.09765625 Z M-7.28515625 35.09765625 C-7.28515625 36.08765625 -7.28515625 37.07765625 -7.28515625 38.09765625 C-6.62515625 37.43765625 -5.96515625 36.77765625 -5.28515625 36.09765625 C-5.94515625 35.76765625 -6.60515625 35.43765625 -7.28515625 35.09765625 Z M-13.28515625 41.09765625 C-12.28515625 43.09765625 -12.28515625 43.09765625 -12.28515625 43.09765625 Z M-11.28515625 41.09765625 C-10.28515625 44.09765625 -10.28515625 44.09765625 -10.28515625 44.09765625 Z M-2.28515625 42.09765625 C-1.62515625 43.41765625 -0.96515625 44.73765625 -0.28515625 46.09765625 C-0.28515625 44.77765625 -0.28515625 43.45765625 -0.28515625 42.09765625 C-0.94515625 42.09765625 -1.60515625 42.09765625 -2.28515625 42.09765625 Z M4.71484375 42.09765625 C5.71484375 44.09765625 5.71484375 44.09765625 5.71484375 44.09765625 Z M-14.28515625 43.09765625 C-14.28515625 45.40765625 -14.28515625 47.71765625 -14.28515625 50.09765625 C-13.95515625 50.09765625 -13.62515625 50.09765625 -13.28515625 50.09765625 C-13.28515625 47.78765625 -13.28515625 45.47765625 -13.28515625 43.09765625 C-13.61515625 43.09765625 -13.94515625 43.09765625 -14.28515625 43.09765625 Z M-5.28515625 44.09765625 C-4.28515625 48.09765625 -4.28515625 48.09765625 -4.28515625 48.09765625 Z M-11.28515625 45.09765625 C-10.28515625 48.09765625 -10.28515625 48.09765625 -10.28515625 48.09765625 Z M-3.28515625 45.09765625 C-2.62515625 46.41765625 -1.96515625 47.73765625 -1.28515625 49.09765625 C-1.61515625 47.77765625 -1.94515625 46.45765625 -2.28515625 45.09765625 C-2.61515625 45.09765625 -2.94515625 45.09765625 -3.28515625 45.09765625 Z M5.71484375 45.09765625 C6.71484375 49.09765625 6.71484375 49.09765625 6.71484375 49.09765625 Z M9.71484375 45.09765625 C9.71484375 47.07765625 9.71484375 49.05765625 9.71484375 51.09765625 C10.04484375 51.09765625 10.37484375 51.09765625 10.71484375 51.09765625 C10.71484375 49.11765625 10.71484375 47.13765625 10.71484375 45.09765625 C10.38484375 45.09765625 10.05484375 45.09765625 9.71484375 45.09765625 Z M-0.28515625 46.09765625 C0.71484375 49.09765625 0.71484375 49.09765625 0.71484375 49.09765625 Z M7.71484375 46.09765625 C8.71484375 49.09765625 8.71484375 49.09765625 8.71484375 49.09765625 Z M0.71484375 49.09765625 C0.71484375 50.74765625 0.71484375 52.39765625 0.71484375 54.09765625 C1.04484375 54.09765625 1.37484375 54.09765625 1.71484375 54.09765625 C1.71484375 52.44765625 1.71484375 50.79765625 1.71484375 49.09765625 C1.38484375 49.09765625 1.05484375 49.09765625 0.71484375 49.09765625 Z M6.71484375 49.09765625 C7.71484375 53.09765625 7.71484375 53.09765625 7.71484375 53.09765625 Z M-1.28515625 50.09765625 C-1.28515625 50.75765625 -1.28515625 51.41765625 -1.28515625 52.09765625 C-2.27515625 52.59265625 -2.27515625 52.59265625 -3.28515625 53.09765625 C-2.29515625 53.42765625 -1.30515625 53.75765625 -0.28515625 54.09765625 C-0.61515625 52.77765625 -0.94515625 51.45765625 -1.28515625 50.09765625 Z M18.71484375 51.09765625 C19.71484375 53.09765625 19.71484375 53.09765625 19.71484375 53.09765625 Z M-7.28515625 61.09765625 C-7.28515625 61.42765625 -7.28515625 61.75765625 -7.28515625 62.09765625 C-4.64515625 62.09765625 -2.00515625 62.09765625 0.71484375 62.09765625 C0.71484375 61.76765625 0.71484375 61.43765625 0.71484375 61.09765625 C-1.92515625 61.09765625 -4.56515625 61.09765625 -7.28515625 61.09765625 Z M3.71484375 61.09765625 C3.71484375 62.74765625 3.71484375 64.39765625 3.71484375 66.09765625 C4.04484375 66.09765625 4.37484375 66.09765625 4.71484375 66.09765625 C4.71484375 64.44765625 4.71484375 62.79765625 4.71484375 61.09765625 C4.38484375 61.09765625 4.05484375 61.09765625 3.71484375 61.09765625 Z M9.71484375 62.09765625 C10.71484375 66.09765625 10.71484375 66.09765625 10.71484375 66.09765625 Z M0.71484375 64.09765625 C0.38484375 65.08765625 0.05484375 66.07765625 -0.28515625 67.09765625 C0.37484375 67.75765625 1.03484375 68.41765625 1.71484375 69.09765625 C2.37484375 68.76765625 3.03484375 68.43765625 3.71484375 68.09765625 C3.38484375 66.77765625 3.05484375 65.45765625 2.71484375 64.09765625 C2.05484375 64.09765625 1.39484375 64.09765625 0.71484375 64.09765625 Z M4.71484375 66.09765625 C4.71484375 68.40765625 4.71484375 70.71765625 4.71484375 73.09765625 C5.04484375 73.09765625 5.37484375 73.09765625 5.71484375 73.09765625 C5.71484375 70.78765625 5.71484375 68.47765625 5.71484375 66.09765625 C5.38484375 66.09765625 5.05484375 66.09765625 4.71484375 66.09765625 Z M1.71484375 69.09765625 C2.71484375 72.09765625 2.71484375 72.09765625 2.71484375 72.09765625 Z " fill="#BB1FD7" transform="translate(47.28515625,5.90234375)"/>
<path d="M0 0 C2.02356532 4.49681182 2.25383462 7.65125434 0.90625 12.296875 C0 14 0 14 -3 15.5 C-7.00343942 16.1672399 -10.94157621 16 -15 16 C-15 16.66 -15 17.32 -15 18 C-12.79095369 17.91224337 -10.58271407 17.80405633 -8.375 17.6875 C-6.53035156 17.60048828 -6.53035156 17.60048828 -4.6484375 17.51171875 C-0.81980042 16.97472575 1.7091894 15.99799215 5 14 C6.40466953 11.94906855 6.40466953 11.94906855 7 10 C7.66 10 8.32 10 9 10 C9.66 7.69 10.32 5.38 11 3 C12.35633723 7.06901169 12.40365946 10.76157566 12 15 C9.6875 16.6875 9.6875 16.6875 7 18 C4.374096 21.60981937 3.53801969 24.60617255 3 29 C2.45672677 33.43673138 1.50741739 36.28902226 -1 40 C-1.66 40.99 -2.32 41.98 -3 43 C-6.2578125 43.29296875 -6.2578125 43.29296875 -10.125 43.1875 C-12.04699219 43.14689453 -12.04699219 43.14689453 -14.0078125 43.10546875 C-14.99523438 43.07066406 -15.98265625 43.03585938 -17 43 C-20.21996289 38.06943183 -21.6735206 35.06168538 -21 29 C-20 26.0625 -20 26.0625 -19 24 C-19.7425 23.29875 -20.485 22.5975 -21.25 21.875 C-23.95016202 19.05210335 -26.07855301 16.39948314 -28 13 C-27.67 12.01 -27.34 11.02 -27 10 C-26.34 10 -25.68 10 -25 10 C-24.401875 10.78375 -23.80375 11.5675 -23.1875 12.375 C-20.87559356 15.14928773 -19.39491889 15.96266367 -16 17 C-16.66 15.02 -17.32 13.04 -18 11 C-19.32 11 -20.64 11 -22 11 C-22.125 7.625 -22.125 7.625 -22 4 C-16.5412381 -1.4587619 -7.12857604 -0.21385728 0 0 Z M-11 3 C-10.34 4.32 -9.68 5.64 -9 7 C-9 5.68 -9 4.36 -9 3 C-9.66 3 -10.32 3 -11 3 Z M-4 3 C-3 5 -3 5 -3 5 Z M-14 5 C-13 9 -13 9 -13 9 Z M-20 6 C-19 9 -19 9 -19 9 Z M-12 6 C-11.34 7.32 -10.68 8.64 -10 10 C-10.33 8.68 -10.66 7.36 -11 6 C-11.33 6 -11.66 6 -12 6 Z M-3 6 C-2 10 -2 10 -2 10 Z M-9 7 C-8 10 -8 10 -8 10 Z M-1 7 C0 10 0 10 0 10 Z M-10 11 C-10 11.66 -10 12.32 -10 13 C-10.99 13.495 -10.99 13.495 -12 14 C-11.01 14.33 -10.02 14.66 -9 15 C-9.33 13.68 -9.66 12.36 -10 11 Z M10 12 C11 14 11 14 11 14 Z M-16 22 C-16 22.33 -16 22.66 -16 23 C-13.36 23 -10.72 23 -8 23 C-8 22.67 -8 22.34 -8 22 C-10.64 22 -13.28 22 -16 22 Z M-5 22 C-5 23.65 -5 25.3 -5 27 C-4.67 27 -4.34 27 -4 27 C-4 25.35 -4 23.7 -4 22 C-4.33 22 -4.66 22 -5 22 Z M1 23 C2 27 2 27 2 27 Z M-8 25 C-8.33 25.99 -8.66 26.98 -9 28 C-8.34 28.66 -7.68 29.32 -7 30 C-6.34 29.67 -5.68 29.34 -5 29 C-5.33 27.68 -5.66 26.36 -6 25 C-6.66 25 -7.32 25 -8 25 Z M-4 27 C-4 29.31 -4 31.62 -4 34 C-3.67 34 -3.34 34 -3 34 C-3 31.69 -3 29.38 -3 27 C-3.33 27 -3.66 27 -4 27 Z M-7 30 C-6 33 -6 33 -6 33 Z " fill="#AF11D9" transform="translate(56,45)"/>
<path d="M0 0 C1.37478516 0.01740234 1.37478516 0.01740234 2.77734375 0.03515625 C3.69644531 0.04417969 4.61554687 0.05320312 5.5625 0.0625 C6.27277344 0.07410156 6.98304687 0.08570313 7.71484375 0.09765625 C7.98296875 0.73703125 8.25109375 1.37640625 8.52734375 2.03515625 C9.60152127 4.42897311 9.60152127 4.42897311 12.71484375 5.09765625 C12.62769358 7.03599621 12.51951411 8.97339915 12.40234375 10.91015625 C12.34433594 11.98910156 12.28632812 13.06804688 12.2265625 14.1796875 C11.66961828 17.35554499 11.09890965 18.08610065 8.71484375 20.09765625 C8.48796875 20.90203125 8.26109375 21.70640625 8.02734375 22.53515625 C6.01523828 26.46355265 2.74534346 27.60487858 -1.28515625 29.09765625 C-4.78515625 29.84765625 -4.78515625 29.84765625 -7.28515625 30.09765625 C-8.31851882 26.99756855 -8.27041311 25.78172887 -7.796875 22.640625 C-7.66732422 21.77501953 -7.53777344 20.90941406 -7.40429688 20.01757812 C-7.26185547 19.11587891 -7.11941406 18.21417969 -6.97265625 17.28515625 C-6.84181641 16.39505859 -6.71097656 15.50496094 -6.57617188 14.58789062 C-4.36633639 0.18659557 -4.36633639 0.18659557 0 0 Z M0.71484375 9.09765625 C1.71484375 11.09765625 1.71484375 11.09765625 1.71484375 11.09765625 Z M3.71484375 9.09765625 C1.53152686 10.8590198 1.53152686 10.8590198 1.51953125 13.04296875 C1.55433594 14.12191406 1.55433594 14.12191406 1.58984375 15.22265625 C1.63109375 16.50140625 1.67234375 17.78015625 1.71484375 19.09765625 C2.70484375 19.09765625 3.69484375 19.09765625 4.71484375 19.09765625 C4.71484375 15.79765625 4.71484375 12.49765625 4.71484375 9.09765625 C4.38484375 9.09765625 4.05484375 9.09765625 3.71484375 9.09765625 Z M-0.28515625 11.09765625 C-0.28515625 15.05765625 -0.28515625 19.01765625 -0.28515625 23.09765625 C0.04484375 23.09765625 0.37484375 23.09765625 0.71484375 23.09765625 C0.71484375 19.13765625 0.71484375 15.17765625 0.71484375 11.09765625 C0.38484375 11.09765625 0.05484375 11.09765625 -0.28515625 11.09765625 Z M4.71484375 13.09765625 C5.71484375 16.09765625 5.71484375 16.09765625 5.71484375 16.09765625 Z M-6.28515625 21.09765625 C-5.28515625 25.09765625 -5.28515625 25.09765625 -5.28515625 25.09765625 Z " fill="#DC50E8" transform="translate(47.28515625,5.90234375)"/>
<path d="M0 0 C0.33 0.66 0.66 1.32 1 2 C1.5775 1.814375 2.155 1.62875 2.75 1.4375 C5.27696034 0.9461466 6.61833754 1.04733502 9 2 C9.99 3.485 9.99 3.485 11 5 C11.99 4.67 12.98 4.34 14 4 C14.33 7.3 14.66 10.6 15 14 C14.01 14.33 13.02 14.66 12 15 C12 15.66 12 16.32 12 17 C12.66 17.33 13.32 17.66 14 18 C12.41913952 18.36504603 10.83516093 18.71660506 9.25 19.0625 C7.92742188 19.35833984 7.92742188 19.35833984 6.578125 19.66015625 C3.98329967 20.00220141 2.42552507 19.94416412 0 19 C-1.1875 17.0625 -1.1875 17.0625 -2 15 C-2.33 14.34 -2.66 13.68 -3 13 C-3.40454244 7.74094829 -2.66166853 4.54701708 0 0 Z M11 7 C12 10 12 10 12 10 Z " fill="#B012E3" transform="translate(38,68)"/>
<path d="M0 0 C6.31210233 0.9398019 10.78089555 2.02362039 15 7 C15.68541686 10.50100182 15.62492394 13.75015212 14 17 C13.34 17 12.68 17 12 17 C11.690625 18.1446875 11.690625 18.1446875 11.375 19.3125 C9.51710206 22.94384598 7.75930917 23.50323801 4 25 C0.3515625 25.29296875 0.3515625 25.29296875 -3.375 25.1875 C-4.62023438 25.16042969 -5.86546875 25.13335937 -7.1484375 25.10546875 C-8.08945312 25.07066406 -9.03046875 25.03585938 -10 25 C-10 24.34 -10 23.68 -10 23 C-9.26394531 22.96261719 -8.52789062 22.92523438 -7.76953125 22.88671875 C-0.19503685 22.6906308 -0.19503685 22.6906308 6 19 C6.68140804 15.06753672 6.25504506 11.76513519 5 8 C3.10424749 7.97278824 1.20838021 7.95350864 -0.6875 7.9375 C-1.74324219 7.92589844 -2.79898438 7.91429687 -3.88671875 7.90234375 C-6.72410262 7.99134575 -9.2438919 8.35060162 -12 9 C-11.375 7.125 -11.375 7.125 -10 5 C-6.38181456 3.42687589 -3.97906647 3 0 3 C0 2.01 0 1.02 0 0 Z M1 2 C1 2.33 1 2.66 1 3 C2.65 3 4.3 3 6 3 C6 2.67 6 2.34 6 2 C4.35 2 2.7 2 1 2 Z " fill="#C820E6" transform="translate(51,38)"/>
<path d="M0 0 C2.0243908 4.49864622 2.24497917 7.64753944 0.9140625 12.296875 C0 14 0 14 -3.125 15.5 C-4.07375 15.665 -5.0225 15.83 -6 16 C-6.50757862 14.58603098 -7.00574925 13.16868271 -7.5 11.75 C-7.7784375 10.96109375 -8.056875 10.1721875 -8.34375 9.359375 C-9 7 -9 7 -9 3 C-10.87543354 6.86763446 -10.87543354 6.86763446 -10 11 C-11 12 -11 12 -13.75 12.125 C-16.6340328 12.01407566 -19.19859453 11.65915423 -22 11 C-22.125 7.625 -22.125 7.625 -22 4 C-16.5412381 -1.4587619 -7.12857604 -0.21385728 0 0 Z M-4 3 C-3 5 -3 5 -3 5 Z M-14 5 C-13 9 -13 9 -13 9 Z M-20 6 C-19 9 -19 9 -19 9 Z M-3 6 C-2 10 -2 10 -2 10 Z M-1 7 C0 10 0 10 0 10 Z " fill="#B815E4" transform="translate(56,45)"/>
<path d="M0 0 C1.37478516 0.01740234 1.37478516 0.01740234 2.77734375 0.03515625 C3.69644531 0.04417969 4.61554687 0.05320312 5.5625 0.0625 C6.27277344 0.07410156 6.98304687 0.08570313 7.71484375 0.09765625 C7.98296875 0.73703125 8.25109375 1.37640625 8.52734375 2.03515625 C9.60152127 4.42897311 9.60152127 4.42897311 12.71484375 5.09765625 C12.5740806 7.05636055 12.42707615 9.01461718 12.27734375 10.97265625 C12.19613281 12.06320313 12.11492188 13.15375 12.03125 14.27734375 C11.71484375 17.09765625 11.71484375 17.09765625 10.71484375 19.09765625 C9.72484375 18.76765625 8.73484375 18.43765625 7.71484375 18.09765625 C6.39484375 19.41765625 5.07484375 20.73765625 3.71484375 22.09765625 C3.71484375 16.81765625 3.71484375 11.53765625 3.71484375 6.09765625 C-1.24169578 7.33679113 -1.69685042 8.90281577 -4.28515625 13.09765625 C-4.61515625 13.09765625 -4.94515625 13.09765625 -5.28515625 13.09765625 C-5.49777052 8.63275652 -4.92975177 5.2575155 -3.28515625 1.09765625 C-2.28515625 0.09765625 -2.28515625 0.09765625 0 0 Z M4.71484375 13.09765625 C5.71484375 16.09765625 5.71484375 16.09765625 5.71484375 16.09765625 Z " fill="#E051E8" transform="translate(47.28515625,5.90234375)"/>
<path d="M0 0 C0.66 0.33 1.32 0.66 2 1 C1.359401 4.71547421 1.359401 4.71547421 -0.5 6.1875 C-2.80878284 8.97727926 -2.5244774 11.63360722 -2.6875 15.1875 C-2.75324219 16.45980469 -2.81898437 17.73210938 -2.88671875 19.04296875 C-2.92410156 20.01878906 -2.96148437 20.99460937 -3 22 C-1.35 22.33 0.3 22.66 2 23 C2.33 24.65 2.66 26.3 3 28 C-2.06281464 27.55328106 -4.32766175 25.26430066 -8 22 C-8.66 21.67 -9.32 21.34 -10 21 C-10.33 21.99 -10.66 22.98 -11 24 C-11 20.37 -11 16.74 -11 13 C-10.34 13 -9.68 13 -9 13 C-7.61558 11.03501678 -6.28796166 9.02951535 -5 7 C-4.00612666 5.66209359 -3.0073108 4.32781878 -2 3 C-1.34 2.01 -0.68 1.02 0 0 Z " fill="#B91CDF" transform="translate(37,34)"/>
<path d="M0 0 C0.33 0.99 0.66 1.98 1 3 C0.33613281 2.90460937 -0.32773437 2.80921875 -1.01171875 2.7109375 C-7.71645525 1.79684678 -7.71645525 1.79684678 -14 4 C-14 5.32 -14 6.64 -14 8 C-13.34 6.68 -12.68 5.36 -12 4 C-11.34 4 -10.68 4 -10 4 C-10.2784375 4.8971875 -10.2784375 4.8971875 -10.5625 5.8125 C-11.22093687 8.16408762 -11.22093687 8.16408762 -10 11 C-11 12 -11 12 -13.75 12.125 C-16.6340328 12.01407566 -19.19859453 11.65915423 -22 11 C-22.125 7.625 -22.125 7.625 -22 4 C-16.5412381 -1.4587619 -7.12857604 -0.21385728 0 0 Z M-20 6 C-19 9 -19 9 -19 9 Z " fill="#BF1BE0" transform="translate(56,45)"/>
<path d="M0 0 C3.74622356 1.45015106 3.74622356 1.45015106 4.75 3.625 C5.40161666 9.81535825 5.81035581 13.87067487 2 19 C1.34 19.99 0.68 20.98 0 22 C-0.99 21.67 -1.98 21.34 -3 21 C-2.34 21 -1.68 21 -1 21 C-1 20.34 -1 19.68 -1 19 C-1.66 19 -2.32 19 -3 19 C-3 18.34 -3 17.68 -3 17 C-2.34 16.67 -1.68 16.34 -1 16 C-1.01160156 14.92878906 -1.02320313 13.85757813 -1.03515625 12.75390625 C-1.04453299 11.35677257 -1.05363331 9.95963701 -1.0625 8.5625 C-1.07506836 7.50192383 -1.07506836 7.50192383 -1.08789062 6.41992188 C-1.09653588 4.61306441 -1.05220011 2.80612397 -1 1 C-0.67 0.67 -0.34 0.34 0 0 Z " fill="#A115D7" transform="translate(53,66)"/>
<path d="M0 0 C1.37478516 0.01740234 1.37478516 0.01740234 2.77734375 0.03515625 C3.69644531 0.04417969 4.61554687 0.05320312 5.5625 0.0625 C6.27277344 0.07410156 6.98304687 0.08570313 7.71484375 0.09765625 C7.98296875 0.73703125 8.25109375 1.37640625 8.52734375 2.03515625 C9.60152127 4.42897311 9.60152127 4.42897311 12.71484375 5.09765625 C12.05484375 6.41765625 11.39484375 7.73765625 10.71484375 9.09765625 C10.17859375 8.60265625 9.64234375 8.10765625 9.08984375 7.59765625 C5.92722838 5.60021496 4.38996982 5.34763052 0.71484375 6.09765625 C-0.88138661 7.81339049 -2.08068687 9.56997803 -3.3046875 11.56640625 C-3.62824219 12.07171875 -3.95179687 12.57703125 -4.28515625 13.09765625 C-4.61515625 13.09765625 -4.94515625 13.09765625 -5.28515625 13.09765625 C-5.49777052 8.63275652 -4.92975177 5.2575155 -3.28515625 1.09765625 C-2.28515625 0.09765625 -2.28515625 0.09765625 0 0 Z " fill="#EC6EF1" transform="translate(47.28515625,5.90234375)"/>
<path d="M0 0 C2.31 0.66 4.62 1.32 7 2 C7 2.66 7 3.32 7 4 C14.75493514 4.09928082 22.31068715 4.06059488 30 3 C29.31911019 5.91985181 28.41898766 8.35122304 27 11 C26.67 9.68 26.34 8.36 26 7 C23.03 6.505 23.03 6.505 20 6 C20 7.65 20 9.3 20 11 C19.67 10.34 19.34 9.68 19 9 C18.01 9.33 17.02 9.66 16 10 C10.79068512 8.97579572 5.16860637 7.36177933 1 4 C0.1875 1.8125 0.1875 1.8125 0 0 Z M9 6 C9 6.33 9 6.66 9 7 C11.64 7 14.28 7 17 7 C17 6.67 17 6.34 17 6 C14.36 6 11.72 6 9 6 Z " fill="#8412B9" transform="translate(31,61)"/>
<path d="M0 0 C6.37312781 0.94888792 10.5485846 2.20616804 15 7 C15 8.32 15 9.64 15 11 C12 11 12 11 9.9375 9.0625 C9.298125 8.381875 8.65875 7.70125 8 7 C3.63142633 4.81571317 -2.68066018 5.31690676 -7.28125 6.671875 C-8.88994594 7.37073471 -10.45240538 8.1746162 -12 9 C-11.375 7.125 -11.375 7.125 -10 5 C-6.38181456 3.42687589 -3.97906647 3 0 3 C0 2.01 0 1.02 0 0 Z M1 2 C1 2.33 1 2.66 1 3 C2.65 3 4.3 3 6 3 C6 2.67 6 2.34 6 2 C4.35 2 2.7 2 1 2 Z " fill="#E15AF5" transform="translate(51,38)"/>
<path d="M0 0 C0 1.98 0 3.96 0 6 C-0.99 5.67 -1.98 5.34 -3 5 C-2.94199219 5.90363281 -2.88398437 6.80726562 -2.82421875 7.73828125 C-2.77910156 8.91777344 -2.73398437 10.09726562 -2.6875 11.3125 C-2.62949219 12.48425781 -2.57148437 13.65601563 -2.51171875 14.86328125 C-3 18 -3 18 -5.51953125 19.91796875 C-6.74736328 20.45357422 -6.74736328 20.45357422 -8 21 C-7.91288896 18.24849263 -7.80600385 15.50018367 -7.6875 12.75 C-7.66494141 11.97269531 -7.64238281 11.19539063 -7.61914062 10.39453125 C-7.45853984 6.97811454 -7.2704145 4.53265937 -5.70703125 1.453125 C-4 0 -4 0 0 0 Z " fill="#DF41EB" transform="translate(51,12)"/>
<path d="M0 0 C0.33 0.66 0.66 1.32 1 2 C1.5775 1.814375 2.155 1.62875 2.75 1.4375 C5.20692525 0.95976454 6.64397534 1.24270636 9 2 C9.33 3.98 9.66 5.96 10 8 C9.22914062 8.06058594 8.45828125 8.12117188 7.6640625 8.18359375 C6.66117188 8.26738281 5.65828125 8.35117188 4.625 8.4375 C3.12839844 8.55931641 3.12839844 8.55931641 1.6015625 8.68359375 C-0.97927613 8.84965626 -0.97927613 8.84965626 -3 10 C-2.49287967 6.28111761 -1.88391785 3.26545761 0 0 Z " fill="#C029EB" transform="translate(38,68)"/>
<path d="M0 0 C1.45880109 0.14107747 2.91703551 0.28802415 4.375 0.4375 C5.59316406 0.55931641 5.59316406 0.55931641 6.8359375 0.68359375 C9 1 9 1 11 2 C10.67 2.99 10.34 3.98 10 5 C10.99 5.33 11.98 5.66 13 6 C11.35 5.67 9.7 5.34 8 5 C7.67 5.66 7.34 6.32 7 7 C9.31 7 11.62 7 14 7 C14 7.33 14 7.66 14 8 C10.7 8.66 7.4 9.32 4 10 C0 3.375 0 3.375 0 0 Z " fill="#9E21D1" transform="translate(35,78)"/>
<path d="M0 0 C0.99 0.33 1.98 0.66 3 1 C3 5.66666667 3 10.33333333 3 15 C3.66 15.33 4.32 15.66 5 16 C1.25 19 1.25 19 -1 19 C-2.30150781 15.09547658 -1.62254053 11.79539691 -1.0625 7.8125 C-0.96259766 7.06291016 -0.86269531 6.31332031 -0.75976562 5.54101562 C-0.51260359 3.69318518 -0.25710389 1.8464734 0 0 Z M0 10 C1 14 1 14 1 14 Z " fill="#E463EB" transform="translate(41,17)"/>
<path d="M0 0 C-0.66 3.3 -1.32 6.6 -2 10 C-2.74955438 7.0017825 -3.41070989 4.03063487 -4 1 C-6.97 0.505 -6.97 0.505 -10 0 C-10.33 0.99 -10.66 1.98 -11 3 C-11 1.68 -11 0.36 -11 -1 C-14.16115776 0.36983503 -14.9927092 0.9890638 -17 4 C-16.8125 1.625 -16.8125 1.625 -16 -1 C-10.65212606 -4.46038902 -5.32326653 -2.66163327 0 0 Z " fill="#9A13CA" transform="translate(58,49)"/>
<path d="M0 0 C0.66 0.33 1.32 0.66 2 1 C1.42927776 4.24337273 0.58290552 5.71057573 -1.875 7.875 C-4.77350361 10.60628224 -6.41901011 13.31102359 -8 17 C-8.75 15.375 -8.75 15.375 -9 13 C-7.25 10 -7.25 10 -5 7 C-4.46375 6.278125 -3.9275 5.55625 -3.375 4.8125 C-2.92125 4.214375 -2.4675 3.61625 -2 3 C-1.34 2.01 -0.68 1.02 0 0 Z " fill="#E04FF2" transform="translate(37,34)"/>
<path d="M0 0 C0.33 0.99 0.66 1.98 1 3 C0.01 3.33 -0.98 3.66 -2 4 C-2 4.66 -2 5.32 -2 6 C-1.34 6.33 -0.68 6.66 0 7 C-2.95664519 8.4783226 -5.74229737 8.06032783 -9 8 C-9.33 6.68 -9.66 5.36 -10 4 C-9.34 3.67 -8.68 3.34 -8 3 C-7.67 3.33 -7.34 3.66 -7 4 C-4.50638429 2.79618552 -2.31856917 1.54571278 0 0 Z " fill="#AD3CE0" transform="translate(52,79)"/>
<path d="M0 0 C2.29013653 3.4352048 2.17842973 4.985331 2 9 C-0.31 9 -2.62 9 -5 9 C-5 9.66 -5 10.32 -5 11 C-5.66 10.67 -6.32 10.34 -7 10 C-6.67 8.35 -6.34 6.7 -6 5 C-4.35 4.67 -2.7 4.34 -1 4 C-0.67 2.68 -0.34 1.36 0 0 Z M0 4 C0 4.66 0 5.32 0 6 C-0.99 6.495 -0.99 6.495 -2 7 C-1.01 7.33 -0.02 7.66 1 8 C0.67 6.68 0.34 5.36 0 4 Z " fill="#9516C4" transform="translate(46,52)"/>
<path d="M0 0 C1.5 1 1.5 1 3 3 C3.39491399 5.79873829 3.227129 8.13817454 3 11 C2.34 11.66 1.68 12.32 1 13 C0.67 11.02 0.34 9.04 0 7 C-0.33 7 -0.66 7 -1 7 C-1.04254356 5.00045254 -1.04080783 2.99958364 -1 1 C-0.67 0.67 -0.34 0.34 0 0 Z " fill="#AD13E1" transform="translate(55,69)"/>
<path d="M0 0 C0.33 0.66 0.66 1.32 1 2 C1.5775 1.814375 2.155 1.62875 2.75 1.4375 C5.20692525 0.95976454 6.64397534 1.24270636 9 2 C8.67 2.99 8.34 3.98 8 5 C4.7 5.33 1.4 5.66 -2 6 C-1.34 4.02 -0.68 2.04 0 0 Z " fill="#C468E1" transform="translate(38,68)"/>
<path d="M0 0 C1.37478516 0.01740234 1.37478516 0.01740234 2.77734375 0.03515625 C3.69644531 0.04417969 4.61554687 0.05320312 5.5625 0.0625 C6.27277344 0.07410156 6.98304687 0.08570313 7.71484375 0.09765625 C7.71484375 1.08765625 7.71484375 2.07765625 7.71484375 3.09765625 C6.2782713 3.43496467 4.84054282 3.76735216 3.40234375 4.09765625 C2.20158203 4.37609375 2.20158203 4.37609375 0.9765625 4.66015625 C-1.28515625 5.09765625 -1.28515625 5.09765625 -4.28515625 5.09765625 C-3.16461059 0.13523977 -3.16461059 0.13523977 0 0 Z " fill="#F1B4F2" transform="translate(47.28515625,5.90234375)"/>
<path d="M0 0 C0.66 0.33 1.32 0.66 2 1 C-3.25603094 5.47735969 -8.40677012 5.11174966 -15 5 C-15 4.34 -15 3.68 -15 3 C-14.25234375 2.95101562 -13.5046875 2.90203125 -12.734375 2.8515625 C-11.74953125 2.77679688 -10.7646875 2.70203125 -9.75 2.625 C-8.28820313 2.52058594 -8.28820313 2.52058594 -6.796875 2.4140625 C-4.08763686 2.01297417 -2.40413024 1.22334061 0 0 Z " fill="#DB58F4" transform="translate(56,58)"/>
<path d="M0 0 C1.32 0 2.64 0 4 0 C4 1.98 4 3.96 4 6 C3.01 5.67 2.02 5.34 1 5 C0.67 7.64 0.34 10.28 0 13 C-0.33 13 -0.66 13 -1 13 C-1.02686553 11.02090602 -1.04633375 9.04171029 -1.0625 7.0625 C-1.07410156 5.96035156 -1.08570313 4.85820312 -1.09765625 3.72265625 C-1 1 -1 1 0 0 Z " fill="#B11EC5" transform="translate(47,12)"/>
<path d="M0 0 C-1.3125 2.5 -1.3125 2.5 -3 5 C-3.99 5 -4.98 5 -6 5 C-6 5.99 -6 6.98 -6 8 C-7.32 7.67 -8.64 7.34 -10 7 C-8.68 5.68 -7.36 4.36 -6 3 C-6.33 2.34 -6.66 1.68 -7 1 C-4.53721199 -0.231394 -2.7204945 -0.07159196 0 0 Z " fill="#CB37DE" transform="translate(44,35)"/>
<path d="M0 0 C1.98 0 3.96 0 6 0 C6.66 1.98 7.32 3.96 8 6 C5.21788056 5.62403791 3.4120716 5.32681541 1.1875 3.5625 C0 2 0 2 0 0 Z " fill="#DA43EA" transform="translate(32,56)"/>
<path d="M0 0 C0.33 0 0.66 0 1 0 C1 3.96 1 7.92 1 12 C-0.65 12.33 -2.3 12.66 -4 13 C-3.67 11.35 -3.34 9.7 -3 8 C-2.34 8 -1.68 8 -1 8 C-0.67 5.36 -0.34 2.72 0 0 Z " fill="#BD2AC8" transform="translate(59,17)"/>
<path d="M0 0 C0.125 3.375 0.125 3.375 0 7 C-0.66 7.66 -1.32 8.32 -2 9 C-2.99 9 -3.98 9 -5 9 C-4.38709677 3.48387097 -4.38709677 3.48387097 -2.5 1.125 C-1 0 -1 0 0 0 Z M-3 3 C-2 6 -2 6 -2 6 Z " fill="#9C12E4" transform="translate(52,72)"/>
<path d="M0 0 C8.57142857 -0.28571429 8.57142857 -0.28571429 12 2 C11.34 3.32 10.68 4.64 10 6 C9.46375 5.360625 8.9275 4.72125 8.375 4.0625 C5.55632807 1.61470596 3.66139268 1.33285388 0 1 C0 0.67 0 0.34 0 0 Z " fill="#E78AEB" transform="translate(48,9)"/>
<path d="M0 0 C2.31 0.33 4.62 0.66 7 1 C7 2.65 7 4.3 7 6 C5.35 5.01 3.7 4.02 2 3 C1.34 3.99 0.68 4.98 0 6 C0 4.02 0 2.04 0 0 Z " fill="#AE0FD9" transform="translate(48,49)"/>
<path d="M0 0 C0.33 0 0.66 0 1 0 C1.25 2.75 1.25 2.75 1 6 C-1 8.375 -1 8.375 -3 10 C-3 7.03 -3 4.06 -3 1 C-2.34 1.66 -1.68 2.32 -1 3 C-0.67 2.01 -0.34 1.02 0 0 Z " fill="#F270F7" transform="translate(54,18)"/>
<path d="M0 0 C0 1.65 0 3.3 0 5 C-0.33 4.34 -0.66 3.68 -1 3 C-1.99 3.33 -2.98 3.66 -4 4 C-6.73812607 3.54451823 -9.3201176 2.74685247 -12 2 C-12 1.67 -12 1.34 -12 1 C-10.18755015 0.83278881 -8.37503867 0.66624559 -6.5625 0.5 C-5.55316406 0.4071875 -4.54382812 0.314375 -3.50390625 0.21875 C-1 0 -1 0 0 0 Z " fill="#8E0DEE" transform="translate(51,67)"/>
<path d="M0 0 C1.9375 0.6875 1.9375 0.6875 4 2 C4.75 4.625 4.75 4.625 5 7 C4.01 7 3.02 7 2 7 C0.25 5.1875 0.25 5.1875 -1 3 C-0.67 2.01 -0.34 1.02 0 0 Z " fill="#D752ED" transform="translate(61,42)"/>
<path d="M0 0 C3.4375 0.8125 3.4375 0.8125 7 2 C7.33 2.99 7.66 3.98 8 5 C6.1875 5.6875 6.1875 5.6875 4 6 C1.51384442 4.15840327 0.99843096 2.99529289 0 0 Z " fill="#910DBD" transform="translate(31,61)"/>
<path d="M0 0 C1.32 0 2.64 0 4 0 C2.55802132 2.88395737 0.29355765 4.76525152 -2 7 C-2.66 5.68 -3.32 4.36 -4 3 C-2.68 3 -1.36 3 0 3 C0 2.01 0 1.02 0 0 Z " fill="#A531CA" transform="translate(38,40)"/>
<path d="M0 0 C0.33 0.99 0.66 1.98 1 3 C-1.22825644 5.22825644 -2.65761628 5.69239369 -5.625 6.625 C-6.44226562 6.88539062 -7.25953125 7.14578125 -8.1015625 7.4140625 C-8.72804687 7.60742188 -9.35453125 7.80078125 -10 8 C-7.23900384 5.03448561 -4.51806824 2.99674143 -1 1 C-0.67 0.67 -0.34 0.34 0 0 Z " fill="#D538E4" transform="translate(54,27)"/>
<path d="M0 0 C-0.33 0.99 -0.66 1.98 -1 3 C-0.01 3.33 0.98 3.66 2 4 C0.68 4 -0.64 4 -2 4 C-2 3.01 -2 2.02 -2 1 C-3.65 1.66 -5.3 2.32 -7 3 C-7 2.01 -7 1.02 -7 0 C-2.25 -1.125 -2.25 -1.125 0 0 Z " fill="#A622DD" transform="translate(46,80)"/>
<path d="M0 0 C-3.2678206 2.17854707 -6.38058265 3.49760034 -10 5 C-7.62417533 -0.26075462 -5.61350876 -0.1220328 0 0 Z " fill="#E876F6" transform="translate(49,42)"/>
<path d="M0 0 C0.66 0.33 1.32 0.66 2 1 C1.75 2.875 1.75 2.875 1 5 C-1.0625 6.25 -1.0625 6.25 -3 7 C-1.125 1.125 -1.125 1.125 0 0 Z " fill="#F38DFA" transform="translate(37,34)"/>
<path d="M0 0 C2 2 2 2 2.1953125 3.9453125 C2.13020833 5.96354167 2.06510417 7.98177083 2 10 C1.67 10 1.34 10 1 10 C0.67 6.7 0.34 3.4 0 0 Z " fill="#D441DC" transform="translate(60,14)"/>
<path d="M0 0 C0.33 0 0.66 0 1 0 C1 3.3 1 6.6 1 10 C0.67 10 0.34 10 0 10 C0 6.7 0 3.4 0 0 Z " fill="#CC26E5" transform="translate(39,17)"/>
<path d="M0 0 C2.64 0 5.28 0 8 0 C8 0.33 8 0.66 8 1 C5.36 1 2.72 1 0 1 C0 0.67 0 0.34 0 0 Z " fill="#B730E8" transform="translate(42,88)"/>
<path d="M0 0 C0.33 0 0.66 0 1 0 C1 2.64 1 5.28 1 8 C0.67 8 0.34 8 0 8 C0 5.36 0 2.72 0 0 Z " fill="#A900FF" transform="translate(59,72)"/>
<path d="M0 0 C0.33 0 0.66 0 1 0 C1 2.31 1 4.62 1 7 C0.67 7 0.34 7 0 7 C0 4.69 0 2.38 0 0 Z " fill="#B50CE3" transform="translate(33,74)"/>
<path d="M0 0 C1.98 0 3.96 0 6 0 C6 0.33 6 0.66 6 1 C4.02 1 2.04 1 0 1 C0 0.67 0 0.34 0 0 Z " fill="#F491FF" transform="translate(47,5)"/>
<path d="M0 0 C1 4 1 4 1 4 Z " fill="#EF6FEF" transform="translate(40,13)"/>
<path d="M0 0 C0.33 0.66 0.66 1.32 1 2 C0.34 1.67 -0.32 1.34 -1 1 C-0.67 0.67 -0.34 0.34 0 0 Z " fill="#B800E9" transform="translate(63,63)"/>
<path d="" fill="#FF00AA" transform="translate(0,0)"/>
<path d="" fill="#710071" transform="translate(0,0)"/>
<path d="" fill="#D400D4" transform="translate(0,0)"/>
<path d="" fill="#7F00DF" transform="translate(0,0)"/>
<path d="" fill="#7F3FFF" transform="translate(0,0)"/>
<path d="" fill="#FF00FF" transform="translate(0,0)"/>
<path d="" fill="#33004C" transform="translate(0,0)"/>
<path d="" fill="#BF5FFF" transform="translate(0,0)"/>
<path d="" fill="#D42AFF" transform="translate(0,0)"/>
<path d="" fill="#FFBFFF" transform="translate(0,0)"/>
<path d="" fill="#FF94FF" transform="translate(0,0)"/>
<path d="" fill="#D42AD4" transform="translate(0,0)"/>
<path d="" fill="#FF00FF" transform="translate(0,0)"/>
<path d="" fill="#BF00BF" transform="translate(0,0)"/>
<path d="" fill="#7F007F" transform="translate(0,0)"/>
<path d="" fill="#BF00BF" transform="translate(0,0)"/>
<path d="" fill="#7F00FF" transform="translate(0,0)"/>
<path d="" fill="#7F00FF" transform="translate(0,0)"/>
<path d="" fill="#FF7FFF" transform="translate(0,0)"/>
<path d="" fill="#7F00FF" transform="translate(0,0)"/>
<path d="" fill="#AA00AA" transform="translate(0,0)"/>
<path d="" fill="#AA00AA" transform="translate(0,0)"/>
<path d="" fill="#5500FF" transform="translate(0,0)"/>
<path d="" fill="#AA00FF" transform="translate(0,0)"/>
<path d="" fill="#AA00FF" transform="translate(0,0)"/>
<path d="" fill="#7F00BF" transform="translate(0,0)"/>
<path d="" fill="#7F00FF" transform="translate(0,0)"/>
<path d="" fill="#FF55FF" transform="translate(0,0)"/>
<path d="" fill="#B624DA" transform="translate(0,0)"/>
<path d="" fill="#FFAAFF" transform="translate(0,0)"/>
<path d="" fill="#AA55AA" transform="translate(0,0)"/>
<path d="" fill="#FF55FF" transform="translate(0,0)"/>
<path d="" fill="#BF7FFF" transform="translate(0,0)"/>
<path d="" fill="#AA55AA" transform="translate(0,0)"/>
<path d="" fill="#FF7FFF" transform="translate(0,0)"/>
<path d="" fill="#7F007F" transform="translate(0,0)"/>
<path d="" fill="#7F007F" transform="translate(0,0)"/>
<path d="" fill="#7F007F" transform="translate(0,0)"/>
<path d="" fill="#FF7FFF" transform="translate(0,0)"/>
<path d="" fill="#FFAAFF" transform="translate(0,0)"/>
<path d="" fill="#FFAAFF" transform="translate(0,0)"/>
</svg>
